<?xml version="1.0" encoding="UTF-8" standalone="no"?>
<!-- Created with Inkscape (http://www.inkscape.org/) -->

<svg
   width="188.97638"
   height="188.97638"
   viewBox="0 0 50 50"
   version="1.1"
   id="svg5"
   inkscape:version="1.1.2 (0a00cf5339, 2022-02-04)"
   sodipodi:docname="favicon.svg"
   xmlns:inkscape="http://www.inkscape.org/namespaces/inkscape"
   xmlns:sodipodi="http://sodipodi.sourceforge.net/DTD/sodipodi-0.dtd"
   xmlns="http://www.w3.org/2000/svg"
   xmlns:svg="http://www.w3.org/2000/svg">
  <sodipodi:namedview
     id="namedview7"
     pagecolor="#ffffff"
     bordercolor="#666666"
     borderopacity="1.0"
     inkscape:pageshadow="2"
     inkscape:pageopacity="0.0"
     inkscape:pagecheckerboard="0"
     inkscape:document-units="mm"
     showgrid="false"
     width="50mm"
     units="px"
     inkscape:zoom="6.2217172"
     inkscape:cx="187.48843"
     inkscape:cy="142.16333"
     inkscape:window-width="3766"
     inkscape:window-height="2096"
     inkscape:window-x="74"
     inkscape:window-y="27"
     inkscape:window-maximized="1"
     inkscape:current-layer="layer1" />
  <defs
     id="defs2" />
  <g
     inkscape:label="Layer 1"
     inkscape:groupmode="layer"
     id="layer1">
    <ellipse
       style="fill:#ff0000;fill-rule:evenodd;stroke-width:0.264583"
       id="path120"
       cx="25.227369"
       cy="23.490171"
       rx="23.866346"
       ry="22.739086" />
    <path
       style="fill:#000000;fill-opacity:1;fill-rule:nonzero;stroke:none;stroke-width:0.264583"
       id="path42"
       d="M 13.95944,6.4698898 C 13.884005,6.1648821 13.781729,5.8694663 13.578478,5.6235655 13.404138,5.412642 13.316556,5.364935 13.100447,5.1988915 12.860066,5.0665811 12.771572,4.9950391 12.496854,4.9373445 12.182624,4.8713516 11.651643,4.8943487 11.366875,5.0522179 10.156127,5.7234269 8.9726803,6.442743 7.7755834,7.1380055 7.6805133,7.2503421 7.5743826,7.3541839 7.4903731,7.4750151 7.1422127,7.9757772 6.9730947,8.5626182 6.8564791,9.1538773 6.744895,9.7196268 6.6966996,10.236806 6.6299375,10.810072 c -0.1570997,1.585892 -0.170044,3.180914 -0.1527323,4.772959 -0.00904,0.554419 0.035858,1.111915 -0.00299,1.665832 -0.00965,0.09658 -0.015211,0.115587 -0.00674,0.222256 0.014369,0.180915 0.042612,0.360507 0.05893,0.541257 0.027085,0.300019 0.038685,0.517152 0.057912,0.82045 0.06195,0.780867 0.06458,1.564145 0.03468,2.346379 -0.00834,0.191703 -0.024572,0.382862 -0.042693,0.573831 0,0 3.5038498,-1.781121 3.5038498,-1.781121 v 0 c -0.01489,-0.179307 -0.02842,-0.358731 -0.03682,-0.538486 -0.03428,-0.776092 -0.060957,-1.552482 -0.1036231,-2.328189 -0.00777,-0.360194 -0.015071,-0.485861 -0.00534,-0.84056 0.00305,-0.111395 0.00844,-0.222753 0.016208,-0.333919 0.00106,-0.01506 0.033701,-0.318147 0.035227,-0.375006 9.789e-4,-0.03649 -0.00344,-0.07293 -0.00516,-0.109396 -0.02042,-0.148698 -0.050363,-0.294833 -0.076082,-0.442697 C 9.8405433,14.635587 9.7915901,14.265051 9.7553599,13.893202 9.7387837,13.699244 9.7188172,13.505545 9.7056304,13.311327 9.6135639,11.955342 9.6387665,10.590867 9.813927,9.242281 9.8592163,8.9578764 9.893823,8.6715636 9.9497948,8.3890672 10.115376,7.5533561 10.365706,6.660865 10.977147,6.032062 11.07705,5.929322 11.197541,5.8488373 11.307738,5.757225 10.331762,6.3060534 9.3538393,6.8514337 8.3798107,7.4037102 8.2733268,7.4640868 8.5915764,7.2791565 8.7049543,7.2330089 8.9883741,7.1176504 9.3078582,7.0795646 9.6056904,7.1609068 c 0.085434,0.023334 0.16433,0.066098 0.2464948,0.099148 0.1778568,0.1207349 0.2524338,0.1511512 0.3868238,0.3182715 0.155307,0.1931337 0.222351,0.4401444 0.199089,0.6841583 0,0 3.521342,-1.7925944 3.521342,-1.7925948 z" />
    <path
       style="fill:#000000;fill-opacity:1;fill-rule:nonzero;stroke:none;stroke-width:0.264583"
       id="path44"
       d="m 2.5872594,16.560759 c 1.5425123,0.05471 3.0860909,0.06144 4.6293332,0.07795 1.052127,0.0032 2.1027691,0.05268 3.1528494,0.11235 0,0 2.850815,-2.059289 2.850815,-2.059289 v 0 c -1.086338,-3.97e-4 -2.17273,-0.0043 -3.2586875,-0.03756 -1.3933977,-0.05137 -2.7842852,-0.101261 -4.1569893,-0.367868 0,0 -3.2173208,2.274421 -3.2173208,2.274421 z" />
    <path
       style="fill:#000000;fill-opacity:1;fill-rule:nonzero;stroke:none;stroke-width:0.264583"
       id="path46"
       d="m 27.421628,12.20553 c -0.694238,-0.475598 -1.521985,-0.725168 -2.33525,-0.909156 -0.296844,-0.06715 -0.597538,-0.115993 -0.896307,-0.17399 -0.840332,-0.132936 -1.693216,-0.232688 -2.545826,-0.187004 -0.216342,0.01159 -0.815793,0.06769 -1.044389,0.199836 -1.180154,0.682215 -2.324309,1.424891 -3.486463,2.137337 -0.0088,0.133073 -0.05759,0.269565 -0.02636,0.399219 0.120423,0.49994 0.760813,0.97436 1.149224,1.24616 0.401249,0.280784 1.289125,0.813814 1.665864,1.044458 1.046456,0.645234 2.084467,1.309055 3.061778,2.056664 0.408019,0.31212 0.942725,0.742797 1.292411,1.14031 0.120745,0.137259 0.211879,0.297968 0.317818,0.446952 0.05976,0.251445 0.187497,0.391304 -0.08199,0.561827 -0.115971,0.07338 -0.502668,0.211777 -0.388987,0.134895 0.833753,-0.563866 1.792965,-0.949928 2.559194,-1.602601 0.239641,-0.204125 -0.610177,0.159605 -0.921312,0.207457 -0.358387,0.05512 -0.72208,0.06722 -1.08312,0.100822 -1.023199,0.02071 -2.050136,-0.06896 -3.035768,-0.356781 -0.385308,-0.112517 -0.823829,-0.287189 -1.164123,-0.514029 -0.106397,-0.07092 -0.192808,-0.168011 -0.289213,-0.252016 -0.03102,-0.06707 -0.08383,-0.127902 -0.09305,-0.201223 -0.01722,-0.136975 0.212675,-0.228442 0.30095,-0.275655 0,0 -3.604929,1.526642 -3.604929,1.526642 v 0 c -0.02632,0.05904 -0.06386,0.114275 -0.07895,0.177132 -0.04247,0.176879 -0.03046,0.357578 0.06074,0.520574 0.05729,0.102386 0.149827,0.180587 0.224741,0.270881 0.133434,0.08806 0.259001,0.189391 0.400302,0.26418 0.416689,0.220549 0.902908,0.379085 1.356573,0.489345 1.029581,0.250229 2.090852,0.347443 3.146681,0.392207 0.160223,-0.0032 1.661581,-0.004 1.895921,-0.109599 1.314856,-0.592563 2.577378,-1.29863 3.825384,-2.02144 0.30697,-0.177787 0.445188,-0.477983 0.360241,-0.814896 -0.03759,-0.149072 -0.148206,-0.269398 -0.222311,-0.404097 -0.145748,-0.146118 -0.281103,-0.303398 -0.437245,-0.438354 -0.415774,-0.35936 -1.035745,-0.769406 -1.478475,-1.067185 C 24.809748,15.511288 23.775168,14.85457 22.800788,14.111934 22.33039,13.749399 21.807454,13.35665 21.349546,12.96996 21.198545,12.842444 21.046109,12.715658 20.907733,12.574543 20.806355,12.471159 20.542619,12.200386 20.54821,11.995314 c 0.0018,-0.06733 0.06141,-0.119896 0.09211,-0.179843 -0.994428,0.547793 -1.9893,1.094779 -2.983283,1.643379 -0.149034,0.08225 0.288581,-0.185813 0.448429,-0.244341 0.205528,-0.07525 0.421953,-0.121082 0.638395,-0.153596 0.844255,-0.126828 1.703311,-0.04623 2.540748,0.08295 0.277444,0.0615 0.557729,0.111359 0.832334,0.184504 0.627017,0.167017 1.312162,0.413774 1.822029,0.832153 0.0423,0.03471 0.07817,0.0766 0.117262,0.114894 0,0 3.365392,-2.069888 3.365392,-2.069888 z" />
    <path
       style="fill:#000000;fill-opacity:1;fill-rule:nonzero;stroke:none;stroke-width:0.264583"
       id="path48"
       d="m 13.411617,25.018778 c -0.0036,0.05396 -0.0042,0.108211 -0.01089,0.161874 -0.02619,0.209782 -0.0879,0.512916 -0.123585,0.707593 -0.08543,0.466083 -0.141083,0.802855 -0.241245,1.276282 -0.05558,0.262718 -0.118369,0.523862 -0.177554,0.785794 -0.217899,0.899573 -0.464533,1.791594 -0.728478,2.678599 0,0 3.367728,-1.615942 3.367728,-1.615942 v 0 c 0.162304,-0.876004 0.349941,-1.747084 0.582021,-2.607594 0.181777,-0.688948 0.226642,-0.872106 0.416851,-1.543737 0.131997,-0.466085 0.284125,-0.927316 0.407328,-1.395865 0.01875,-0.07129 0.03333,-0.143616 0.04999,-0.215423 0,0 -3.542171,1.768419 -3.542171,1.768419 z" />
    <path
       style="fill:#000000;fill-opacity:1;fill-rule:nonzero;stroke:none;stroke-width:0.264583"
       id="path50"
       d="m 12.255927,33.287671 c -0.0038,0.110537 -0.0013,0.221458 -0.01129,0.331615 -0.0237,0.26307 -0.11582,0.832144 -0.152634,1.070483 -0.113925,0.737558 -0.221116,1.475613 -0.324145,2.21478 -0.155397,1.283059 -0.406314,2.550617 -0.661055,3.816638 -0.03855,0.286676 -0.125881,0.580874 -0.09558,0.872979 0.0075,0.05344 0.004,0.0283 0.01044,0.0754 0,0 3.522047,-1.863664 3.522047,-1.863664 v 0 c -0.0063,-0.03467 -0.0034,-0.01648 -0.0085,-0.05461 -0.02641,-0.237932 -0.02178,-0.477253 -0.0066,-0.716011 0.0792,-1.243232 0.247066,-2.478166 0.452225,-3.70655 0.121233,-0.720913 0.137714,-0.850876 0.277171,-1.557457 0.121268,-0.61442 0.264708,-1.223433 0.400458,-1.834668 0.02996,-0.134922 0.05817,-0.270227 0.08725,-0.405342 0,0 -3.489843,1.756408 -3.489843,1.756408 z" />
    <path
       style="fill:#000000;fill-opacity:1;fill-rule:nonzero;stroke:none;stroke-width:0.264583"
       id="path52"
       d="m 23.658295,25.306315 c 0.0062,0.05955 0.01625,0.118832 0.01874,0.17866 0.01163,0.279376 -0.0048,0.627295 -0.01654,0.89448 -0.03639,0.829384 -0.106305,1.653667 -0.183201,2.480125 -0.02779,0.28412 -0.05815,0.568002 -0.08337,0.852363 -0.07101,0.800743 -0.06529,0.87489 -0.123153,1.677551 -0.06313,0.875792 -0.137144,1.750859 -0.204768,2.626315 -0.07086,1.029674 -0.261554,2.058787 -0.169781,3.093921 0.04757,0.536538 0.08477,0.581364 0.227597,1.075849 0.06921,0.137766 0.122837,0.284533 0.207629,0.413295 0.250936,0.381058 0.631461,0.633749 1.04842,0.800709 0.356807,0.142875 0.470655,0.141562 0.845991,0.204943 0.393208,0.03808 0.784694,0.0076 1.170841,-0.0704 0.350094,-0.0707 0.695095,-0.175982 1.040374,-0.266488 0.505939,-0.139628 1.021974,-0.234336 1.541944,-0.302048 0.100981,-0.01077 0.056,-0.007 0.134824,-0.01244 0,0 3.165792,-2.39505 3.165792,-2.39505 v 0 c -0.09701,0.02895 -0.04187,0.0136 -0.165955,0.04421 -0.549984,0.120904 -1.105492,0.215361 -1.652386,0.349994 -0.138523,0.03468 -0.5564,0.138417 -0.696751,0.176977 -0.477285,0.131138 -0.948127,0.301109 -1.45166,0.288507 -0.132377,-0.0091 -0.265803,-0.0083 -0.397129,-0.02724 -0.368298,-0.05314 -0.759175,-0.182698 -1.054876,-0.416338 -0.261538,-0.206648 -0.283299,-0.306179 -0.452665,-0.5925 -0.05099,-0.14297 -0.113519,-0.282337 -0.152984,-0.428908 -0.302917,-1.125038 -0.09302,-2.371741 -0.03113,-3.513648 0.07682,-0.881211 0.161175,-1.7619 0.230227,-2.64377 0.136938,-1.748859 -0.01397,0.06262 0.122344,-1.669021 0.02215,-0.281294 0.04707,-0.562363 0.0706,-0.843547 0.06357,-0.629033 0.10726,-1.122828 0.195271,-1.748842 0.114667,-0.815645 0.114244,-0.673326 0.241643,-1.408733 0.0619,-0.357317 0.05593,-0.340469 0.08589,-0.640719 0,0 -3.51178,1.821768 -3.51178,1.821768 z" />
    <path
       style="fill:#000000;fill-opacity:1;fill-rule:nonzero;stroke:none;stroke-width:0.264583"
       id="path54"
       d="m 19.152242,31.411465 c 1.624302,0.007 3.248527,-0.01889 4.872781,-0.02964 1.373433,-0.003 2.746794,0.01966 4.119613,0.05887 0,0 2.877482,-2.092941 2.877482,-2.092941 v 0 c -0.294521,0.01072 -0.588944,0.02442 -0.883558,0.03213 -1.118666,0.0293 -2.237811,0.02336 -3.356549,0.0013 -0.02556,-5.29e-4 -2.050632,-0.03928 -2.137172,-0.04205 -0.680514,-0.0218 -1.362838,-0.05742 -2.036273,-0.163597 -0.08322,-0.01312 -0.165219,-0.03309 -0.247829,-0.04963 0,0 -3.208495,2.285413 -3.208495,2.285413 z" />
    <path
       style="fill:#000000;fill-opacity:1;fill-rule:nonzero;stroke:none;stroke-width:0.264583"
       id="path56"
       d="m 17.263862,3.3860726 c 1.502566,0.082082 3.00567,0.1878645 4.500548,0.3637974 0.53048,0.062432 1.059141,0.1394544 1.588712,0.2091816 2.793844,0.4189413 5.545177,1.1378123 8.168077,2.1919578 0.459015,0.1844792 0.908354,0.3921784 1.362532,0.5882677 2.019559,0.9370767 3.950743,2.082936 5.67567,3.4961069 0.329687,0.270101 0.643451,0.559075 0.965176,0.838613 0.29831,0.297184 0.607579,0.583758 0.894924,0.891553 1.134311,1.215031 2.129589,2.641078 2.896378,4.114969 0.20452,0.393121 0.379833,0.800762 0.569748,1.201143 0.633767,1.478284 1.034802,3.018404 1.256075,4.608772 0.104648,0.752132 0.147228,1.354766 0.213037,2.111178 0.119706,1.631622 0.126426,3.276009 -0.03344,4.905479 -0.02675,0.272648 -0.06546,0.543992 -0.09818,0.815989 -0.122994,0.887941 -0.325408,1.765188 -0.621249,2.611763 -0.161851,0.463155 -0.255146,0.667681 -0.444535,1.121552 -0.08562,0.192704 -0.169304,0.386276 -0.256857,0.57811 -0.162888,0.356904 -0.401569,0.84523 -0.558647,1.203634 -0.276833,0.631659 -0.513331,1.280052 -0.759552,1.923939 -0.282435,0.686911 -0.53494,1.409197 -0.997204,2.002332 -0.238633,0.306195 -0.354045,0.380654 -0.643819,0.629248 -0.113943,0.08026 -0.225139,0.164579 -0.341834,0.24079 -0.109016,0.07119 -0.223234,0.134088 -0.334851,0.201133 0.978781,-0.571227 1.961491,-1.135766 2.936338,-1.71368 0.09433,-0.05592 -0.19463,0.101259 -0.294143,0.147326 -0.214053,0.09909 -0.350599,0.145388 -0.570624,0.227565 -0.330351,0.117465 -0.670383,0.205497 -0.994145,0.341757 -0.130855,0.05507 -0.262322,0.11035 -0.385887,0.180253 -3.195026,1.807482 -2.508515,1.378818 -4.012769,2.335609 -1.648436,0.94719 1.662382,-0.953346 2.391807,-1.413383 0.145878,-0.092 -0.319926,0.129241 -0.482507,0.186793 -1.276237,0.451774 0.244485,-0.120829 -1.069579,0.349557 -0.188219,0.06738 -0.37311,0.143719 -0.559665,0.215578 -0.186055,0.08457 -0.374393,0.164279 -0.558162,0.253701 -0.185828,0.09042 -0.370628,0.183456 -0.550257,0.285646 -1.231119,0.700368 -2.457071,1.409817 -3.681534,2.121766 -0.171288,0.09959 -0.336476,0.209338 -0.505494,0.312734 -0.155885,0.09536 -0.627356,0.375071 -0.469204,0.283525 0.923057,-0.534302 1.842656,-1.074557 2.763985,-1.611833 -0.723511,0.383563 -1.532792,0.532833 -2.340345,0.611359 -0.173987,0.01691 -0.348657,0.02588 -0.522989,0.03884 -1.129583,0.04514 -2.256049,-0.08922 -3.37136,-0.254016 -0.556205,-0.09161 -1.111248,-0.192863 -1.658006,-0.330761 -0.290337,-0.07839 -0.576834,-0.169281 -0.859165,-0.272709 0,0 -3.255214,2.220807 -3.255214,2.220807 v 0 c 0.309528,0.07716 0.607354,0.191002 0.917995,0.263316 0.591746,0.129733 1.188271,0.244075 1.793465,0.28803 0.554567,0.05186 1.1088,0.106754 1.663041,0.161986 0.252799,0.02519 0.955958,0.09831 1.216271,0.113745 0.183587,0.01087 0.367657,0.01087 0.551487,0.0163 0.176038,-0.0069 0.352293,-0.0094 0.528114,-0.02056 0.328935,-0.0208 0.69221,-0.06191 1.018241,-0.110956 0.314544,-0.04731 0.653997,-0.104899 0.958249,-0.202369 0.151334,-0.04848 0.296042,-0.11562 0.444066,-0.173429 1.207532,-0.693253 2.417538,-1.38221 3.622596,-2.079755 0.150553,-0.08715 0.295603,-0.183488 0.444031,-0.274211 1.033881,-0.631923 2.344193,-1.383631 -2.12426,1.204433 -0.176487,0.102219 0.354354,-0.202213 0.534956,-0.296973 0.177136,-0.09294 0.358637,-0.177313 0.537956,-0.265973 0.546198,-0.229642 0.509164,-0.229063 1.067237,-0.405389 0.171439,-0.05417 0.345101,-0.101034 0.517686,-0.151424 0.163692,-0.04779 0.340291,-0.06362 0.491149,-0.143126 1.234477,-0.650587 2.43858,-1.357267 3.654594,-2.041739 0.133538,-0.07517 0.262586,-0.158046 0.393877,-0.237072 1.280631,-0.775949 0.925079,-0.556019 -2.444617,1.38693 -0.115875,0.06681 0.232502,-0.132586 0.352223,-0.192228 0.312767,-0.155816 0.617964,-0.246549 0.954051,-0.334828 1.778198,-0.583848 2.314249,-1.119214 4.494858,-2.403501 0.109548,-0.06452 0.209513,-0.144412 0.309121,-0.223417 0.108262,-0.08587 0.209274,-0.180496 0.313909,-0.270745 0.279765,-0.298479 0.359437,-0.356397 0.583443,-0.708036 0.397754,-0.624382 0.619943,-1.340736 0.881613,-2.026843 0.195297,-0.522658 0.274765,-0.751544 0.493414,-1.269804 0.347586,-0.823876 0.760719,-1.617589 1.113128,-2.439271 0.188868,-0.468521 0.282877,-0.674587 0.433586,-1.155422 0.267319,-0.852876 0.406067,-1.738844 0.491329,-2.626701 0.05392,-0.6736 0.08885,-1.006647 0.108704,-1.690794 0.03902,-1.344357 -0.05419,-2.687768 -0.124262,-4.029409 -0.07564,-0.861142 -0.09501,-1.281269 -0.239503,-2.13331 -0.27041,-1.59457 -0.771491,-3.140816 -1.409803,-4.624382 -0.48677,-1.03743 -0.633013,-1.412315 -1.213805,-2.399285 C 45.325686,12.885167 45.096361,12.520652 44.851166,12.167358 44.128166,11.1256 43.27371,10.182984 42.350541,9.3162439 42.025974,9.030314 41.710736,8.7334343 41.376846,8.4584539 39.621385,7.0127285 37.625665,5.8859599 35.558134,4.9538477 35.087758,4.7626137 34.621649,4.5605234 34.147003,4.3801458 31.495457,3.3724958 28.734562,2.6759762 25.954938,2.1289435 25.450116,2.0389856 24.945789,1.9462004 24.440471,1.8590696 23.116057,1.6307043 21.779242,1.4493839 20.474315,1.1218051 c 0,0 -3.210453,2.2642675 -3.210453,2.2642675 z" />
  </g>
</svg>
